<svg width="17" height="18" viewBox="0 0 17 18" fill="none" xmlns="http://www.w3.org/2000/svg">
<path d="M0 15.6111C0 16.1121 0.199007 16.5925 0.553243 16.9468C0.907478 17.301 1.38792 17.5 1.88889 17.5H15.1111C15.6121 17.5 16.0925 17.301 16.4468 16.9468C16.801 16.5925 17 16.1121 17 15.6111V2.38889C17 1.88792 16.801 1.40748 16.4468 1.05324C16.0925 0.699007 15.6121 0.5 15.1111 0.5H1.88889C1.38792 0.5 0.907478 0.699007 0.553243 1.05324C0.199007 1.40748 0 1.88792 0 2.38889V15.6111ZM8.5 3.33333H14.1667V9H12.2778V5.22222H8.5V3.33333ZM2.83333 9H4.72222V12.7778H8.5V14.6667H2.83333V9Z" fill="#808A93"/>
</svg>
